{
  "accessors": [
    {
      "bufferView": 1,
      "componentType": 5126,
      "count": 9569,
      "max": [
        2.8730399608612061,
        0.97895997762680054,
        0.46220999956130981
      ],
      "min": [
        -2.8817000389099121,
        -0.97895997762680054,
        -0.46220999956130981
      ],
      "type": "VEC3"
    },
    {
      "bufferView": 1,
      "byteOffset": 114828,
      "componentType": 5126,
      "count": 9569,
      "max": [
        1,
        1,
        1
      ],
      "min": [
        -1,
        -1,
        -1
      ],
      "type": "VEC3"
    },
    {
      "bufferView": 2,
      "componentType": 5126,
      "count": 9569,
      "max": [
        1,
        0.99999886751174927,
        0.99975240230560303,
        1
      ],
      "min": [
        -1,
        -1,
        -0.99960035085678101,
        -1
      ],
      "type": "VEC4"
    },
    {
      "bufferView": 0,
      "componentType": 5125,
      "count": 49092,
      "max": [
        9568
      ],
      "min": [
        0
      ],
      "type": "SCALAR"
    },
    {
      "bufferView": 1,
      "byteOffset": 229656,
      "componentType": 5126,
      "count": 9034,
      "max": [
        2.4883201122283936,
        0.97895997762680054,
        0.46220999956130981
      ],
      "min": [
        -2.9341499805450439,
        -0.97895997762680054,
        -0.46220999956130981
      ],
      "type": "VEC3"
    },
    {
      "bufferView": 1,
      "byteOffset": 338064,
      "componentType": 5126,
      "count": 9034,
      "max": [
        0.67917555570602417,
        0.99947291612625122,
        0.99999552965164185
      ],
      "min": [
        -0.99990540742874146,
        -0.99947327375411987,
        -1
      ],
      "type": "VEC3"
    },
    {
      "bufferView": 2,
      "byteOffset": 153104,
      "componentType": 5126,
      "count": 9034,
      "max": [
        0.98921370506286621,
        0.9997028112411499,
        0.64982259273529053,
        1
      ],
      "min": [
        -0.98910850286483765,
        -0.99909603595733643,
        -0.64981347322463989,
        -1
      ],
      "type": "VEC4"
    },
    {
      "bufferView": 0,
      "byteOffset": 196368,
      "componentType": 5125,
      "count": 52038,
      "max": [
        9033
      ],
      "min": [
        0
      ],
      "type": "SCALAR"
    },
    {
      "bufferView": 1,
      "byteOffset": 446472,
      "componentType": 5126,
      "count": 418,
      "max": [
        1.0000400543212891,
        1,
        0.9927399754524231
      ],
      "min": [
        -1.0000400543212891,
        -1,
        -0.95745998620986938
      ],
      "type": "VEC3"
    },
    {
      "bufferView": 1,
      "byteOffset": 451488,
      "componentType": 5126,
      "count": 418,
      "max": [
        1,
        1,
        1
      ],
      "min": [
        -1,
        -1,
        -1
      ],
      "type": "VEC3"
    },
    {
      "bufferView": 0,
      "byteOffset": 404520,
      "componentType": 5125,
      "count": 1728,
      "max": [
        417
      ],
      "min": [
        0
      ],
      "type": "SCALAR"
    },
    {
      "bufferView": 1,
      "byteOffset": 456504,
      "componentType": 5126,
      "count": 448,
      "max": [
        8.5216503143310547,
        4.2184700965881348,
        1
      ],
      "min": [
        -3.4255399703979492,
        -4.2184700965881348,
        -1
      ],
      "type": "VEC3"
    },
    {
      "bufferView": 1,
      "byteOffset": 461880,
      "componentType": 5126,
      "count": 448,
      "max": [
        1,
        1,
        1
      ],
      "min": [
        -1,
        -1,
        -1
      ],
      "type": "VEC3"
    },
    {
      "bufferView": 0,
      "byteOffset": 411432,
      "componentType": 5125,
      "count": 1548,
      "max": [
        447
      ],
      "min": [
        0
      ],
      "type": "SCALAR"
    },
    {
      "bufferView": 1,
      "byteOffset": 467256,
      "componentType": 5126,
      "count": 78,
      "max": [
        8.5216503143310547,
        4.0200200080871582,
        -0.21525999903678894
      ],
      "min": [
        0.56700998544692993,
        -4.0200200080871582,
        -0.82556998729705811
      ],
      "type": "VEC3"
    },
    {
      "bufferView": 1,
      "byteOffset": 468192,
      "componentType": 5126,
      "count": 78,
      "max": [
        1,
        0.9861796498298645,
        1
      ],
      "min": [
        0,
        -0.9861796498298645,
        -0.16567994654178619
      ],
      "type": "VEC3"
    },
    {
      "bufferView": 0,
      "byteOffset": 417624,
      "componentType": 5125,
      "count": 234,
      "max": [
        77
      ],
      "min": [
        0
      ],
      "type": "SCALAR"
    },
    {
      "bufferView": 1,
      "byteOffset": 469128,
      "componentType": 5126,
      "count": 272,
      "max": [
        7.9982399940490723,
        3.4101400375366211,
        -0.14260999858379364
      ],
      "min": [
        1.0904099941253662,
        -3.4101400375366211,
        -0.21525999903678894
      ],
      "type": "VEC3"
    },
    {
      "bufferView": 1,
      "byteOffset": 472392,
      "componentType": 5126,
      "count": 272,
      "max": [
        1,
        1,
        1
      ],
      "min": [
        -1,
        -1,
        0
      ],
      "type": "VEC3"
    },
    {
      "bufferView": 0,
      "byteOffset": 418560,
      "componentType": 5125,
      "count": 504,
      "max": [
        271
      ],
      "min": [
        0
      ],
      "type": "SCALAR"
    }
  ],
  "asset": {
    "extras": {
      "author": "darvon (https://sketchfab.com/woodland.mid)",
      "license": "CC-BY-4.0 (http://creativecommons.org/licenses/by/4.0/)",
      "source": "https://sketchfab.com/models/20892a237a964e9784fd19a90d72a481",
      "title": "Sandisk Usb Drive"
    },
    "generator": "Sketchfab-3.20.8",
    "version": "2.0"
  },
  "bufferViews": [
    {
      "buffer": 0,
      "byteLength": 420576,
      "byteOffset": 0,
      "name": "floatBufferViews",
      "target": 34963
    },
    {
      "buffer": 0,
      "byteLength": 475656,
      "byteOffset": 420576,
      "byteStride": 12,
      "name": "floatBufferViews",
      "target": 34962
    },
    {
      "buffer": 0,
      "byteLength": 297648,
      "byteOffset": 896232,
      "byteStride": 16,
      "name": "floatBufferViews",
      "target": 34962
    }
  ],
  "buffers": [
    {
      "byteLength": 1193880,
      "uri": "scene.bin"
    }
  ],
  "materials": [
    {
      "doubleSided": true,
      "emissiveFactor": [
        0,
        0,
        0
      ],
      "name": "METAL",
      "pbrMetallicRoughness": {
        "baseColorFactor": [
          1,
          1,
          1,
          1
        ],
        "metallicFactor": 1,
        "roughnessFactor": 0.18121189019999995
      }
    },
    {
      "alphaCutoff": 0,
      "alphaMode": "MASK",
      "doubleSided": true,
      "emissiveFactor": [
        0,
        0,
        0
      ],
      "name": "PLASTIC",
      "pbrMetallicRoughness": {
        "baseColorFactor": [
          1,
          0,
          0,
          1
        ],
        "metallicFactor": 1,
        "roughnessFactor": 0.30049542680000002
      }
    },
    {
      "doubleSided": true,
      "emissiveFactor": [
        0,
        0,
        0
      ],
      "name": "GOLD",
      "pbrMetallicRoughness": {
        "baseColorFactor": [
          0.65924126859999999,
          0.441615759,
          0.022463633899999998,
          1
        ],
        "metallicFactor": 1,
        "roughnessFactor": 0.59999999999999998
      }
    },
    {
      "doubleSided": true,
      "emissiveFactor": [
        0,
        0,
        0
      ],
      "name": "Material",
      "pbrMetallicRoughness": {
        "baseColorFactor": [
          0.74943454239999996,
          0.0012062399000000001,
          0.0012062399000000001,
          1
        ],
        "metallicFactor": 1,
        "roughnessFactor": 0.34927591460000001
      }
    },
    {
      "doubleSided": true,
      "emissiveFactor": [
        0,
        0,
        0
      ],
      "name": "casegloss_coat",
      "pbrMetallicRoughness": {
        "baseColorFactor": [
          0.19802327140000001,
          0.19802327140000001,
          0.19802327140000001,
          1
        ],
        "metallicFactor": 1,
        "roughnessFactor": 0.25171493900000003
      }
    },
    {
      "doubleSided": true,
      "emissiveFactor": [
        0,
        0,
        0
      ],
      "name": "Sun.002",
      "pbrMetallicRoughness": {
        "baseColorFactor": [
          0.044895049200000002,
          0.038254845900000001,
          0.038254845900000001,
          1
        ],
        "metallicFactor": 1,
        "roughnessFactor": 0.36147103660000002
      }
    }
  ],
  "meshes": [
    {
      "name": "USB CASE_0",
      "primitives": [
        {
          "attributes": {
            "NORMAL": 1,
            "POSITION": 0,
            "TANGENT": 2
          },
          "indices": 3,
          "material": 4,
          "mode": 4
        }
      ]
    },
    {
      "name": "USB CASE_1",
      "primitives": [
        {
          "attributes": {
            "NORMAL": 5,
            "POSITION": 4,
            "TANGENT": 6
          },
          "indices": 7,
          "material": 5,
          "mode": 4
        }
      ]
    },
    {
      "name": "SLIDER_0",
      "primitives": [
        {
          "attributes": {
            "NORMAL": 9,
            "POSITION": 8
          },
          "indices": 10,
          "material": 3,
          "mode": 4
        }
      ]
    },
    {
      "name": "USB_0",
      "primitives": [
        {
          "attributes": {
            "NORMAL": 12,
            "POSITION": 11
          },
          "indices": 13,
          "material": 0,
          "mode": 4
        }
      ]
    },
    {
      "name": "USB_1",
      "primitives": [
        {
          "attributes": {
            "NORMAL": 15,
            "POSITION": 14
          },
          "indices": 16,
          "material": 1,
          "mode": 4
        }
      ]
    },
    {
      "name": "USB_2",
      "primitives": [
        {
          "attributes": {
            "NORMAL": 18,
            "POSITION": 17
          },
          "indices": 19,
          "material": 2,
          "mode": 4
        }
      ]
    }
  ],
  "nodes": [
    {
      "children": [
        1
      ],
      "name": "RootNode (gltf orientation matrix)",
      "rotation": [
        -0.70710678118654746,
        -0,
        -0,
        0.70710678118654757
      ]
    },
    {
      "children": [
        2
      ],
      "name": "RootNode (model correction matrix)"
    },
    {
      "children": [
        3,
        6,
        8,
        12,
        14,
        16
      ],
      "name": "Root"
    },
    {
      "children": [
        4,
        5
      ],
      "matrix": [
        1.4393599999999998,
        0,
        0,
        0,
        0,
        1.4393599999999998,
        0,
        0,
        0,
        0,
        1.4393499999999999,
        0,
        0,
        0,
        0,
        1
      ],
      "name": "USB CASE"
    },
    {
      "mesh": 0,
      "name": "USB CASE_0"
    },
    {
      "mesh": 1,
      "name": "USB CASE_1"
    },
    {
      "children": [
        7
      ],
      "matrix": [
        0.38778000000000007,
        0,
        0,
        0,
        0,
        0.54302000000000006,
        0,
        0,
        0,
        0,
        0.38921000000000006,
        0,
        0.47656000000000004,
        0,
        0.44997000000000009,
        1
      ],
      "name": "SLIDER"
    },
    {
      "mesh": 2,
      "name": "SLIDER_0"
    },
    {
      "children": [
        9,
        10,
        11
      ],
      "matrix": [
        0.19759000000000004,
        0,
        0,
        0,
        0,
        0.19759000000000004,
        0,
        0,
        0,
        0,
        0.19759000000000004,
        0,
        4.0627199999999997,
        0,
        0,
        1
      ],
      "name": "USB"
    },
    {
      "mesh": 3,
      "name": "USB_0"
    },
    {
      "mesh": 4,
      "name": "USB_1"
    },
    {
      "mesh": 5,
      "name": "USB_2"
    },
    {
      "children": [
        13
      ],
      "matrix": [
        0.32412000000000007,
        -0.93642999999999998,
        -0.13436000000000001,
        0,
        0.44364000000000003,
        0.27590000000000003,
        -0.8526800000000001,
        0,
        0.83554000000000006,
        0.21677000000000002,
        0.50485999999999998,
        0,
        9.2569199999999991,
        3.2870700000000004,
        5.7978299999999994,
        1
      ],
      "name": "Sun"
    },
    {
      "name": "Sun"
    },
    {
      "children": [
        15
      ],
      "matrix": [
        -0.49555000000000005,
        -0.8581200000000001,
        -0.13436000000000001,
        0,
        0.49901000000000006,
        -0.15466000000000002,
        -0.8526800000000001,
        0,
        0.71093000000000006,
        -0.48959000000000003,
        0.50485999999999998,
        0,
        9.2569199999999991,
        -6.8462300000000003,
        5.7978299999999994,
        1
      ],
      "name": "Sun.001"
    },
    {
      "name": "Sun.001"
    },
    {
      "children": [
        17
      ],
      "matrix": [
        0.014830000000000003,
        0.99082000000000003,
        -0.13436000000000001,
        0,
        -0.51114999999999999,
        -0.10798000000000001,
        -0.8526800000000001,
        0,
        -0.85937000000000008,
        0.081320000000000017,
        0.50485999999999998,
        0,
        -7.4923200000000003,
        0.2722,
        5.7978299999999994,
        1
      ],
      "name": "Sun.002"
    },
    {
      "name": "Sun.002"
    }
  ],
  "scene": 0,
  "scenes": [
    {
      "name": "OSG_Scene",
      "nodes": [
        0
      ]
    }
  ]
}

