{
  "accessors": [
    {
      "bufferView": 2,
      "componentType": 5126,
      "count": 7385,
      "max": [
        156.444580078125,
        141.58984375,
        98.308494567871094
      ],
      "min": [
        -62.569938659667969,
        -94.087966918945312,
        -148.228271484375
      ],
      "type": "VEC3"
    },
    {
      "bufferView": 2,
      "byteOffset": 88620,
      "componentType": 5126,
      "count": 7385,
      "max": [
        0.99917322397232056,
        0.9996296763420105,
        0.99845707416534424
      ],
      "min": [
        -0.99916452169418335,
        -0.99942183494567871,
        -0.99955028295516968
      ],
      "type": "VEC3"
    },
    {
      "bufferView": 3,
      "componentType": 5126,
      "count": 7385,
      "max": [
        0.99868649244308472,
        0.99964374303817749,
        0.99988281726837158,
        1
      ],
      "min": [
        -0.99935698509216309,
        -0.99989932775497437,
        -0.99963575601577759,
        -1
      ],
      "type": "VEC4"
    },
    {
      "bufferView": 1,
      "componentType": 5126,
      "count": 7385,
      "max": [
        0.99854797124862671,
        0.99660700559616089
      ],
      "min": [
        0.00097200000891461968,
        0.00097200000891461968
      ],
      "type": "VEC2"
    },
    {
      "bufferView": 0,
      "componentType": 5125,
      "count": 23652,
      "max": [
        7384
      ],
      "min": [
        0
      ],
      "type": "SCALAR"
    }
  ],
  "asset": {
    "extras": {
      "author": "kathiastaff (https://sketchfab.com/kathiastaff)",
      "license": "CC-BY-4.0 (http://creativecommons.org/licenses/by/4.0/)",
      "source": "https://sketchfab.com/models/5f044054b64244f4922a5370e384a98a",
      "title": "Michael Jackson"
    },
    "generator": "Sketchfab-3.20.7",
    "version": "2.0"
  },
  "bufferViews": [
    {
      "buffer": 0,
      "byteLength": 94608,
      "byteOffset": 0,
      "name": "floatBufferViews",
      "target": 34963
    },
    {
      "buffer": 0,
      "byteLength": 59080,
      "byteOffset": 94608,
      "byteStride": 8,
      "name": "floatBufferViews",
      "target": 34962
    },
    {
      "buffer": 0,
      "byteLength": 177240,
      "byteOffset": 153688,
      "byteStride": 12,
      "name": "floatBufferViews",
      "target": 34962
    },
    {
      "buffer": 0,
      "byteLength": 118160,
      "byteOffset": 330928,
      "byteStride": 16,
      "name": "floatBufferViews",
      "target": 34962
    }
  ],
  "buffers": [
    {
      "byteLength": 449088,
      "uri": "scene.bin"
    }
  ],
  "images": [
    {
      "uri": "textures/SculptMaterial_baseColor.png"
    }
  ],
  "materials": [
    {
      "doubleSided": true,
      "emissiveFactor": [
        0,
        0,
        0
      ],
      "name": "SculptMaterial",
      "pbrMetallicRoughness": {
        "baseColorFactor": [
          1,
          1,
          1,
          1
        ],
        "baseColorTexture": {
          "index": 0,
          "texCoord": 0
        },
        "metallicFactor": 0,
        "roughnessFactor": 0.59999999999999998
      }
    }
  ],
  "meshes": [
    {
      "primitives": [
        {
          "attributes": {
            "NORMAL": 1,
            "POSITION": 0,
            "TANGENT": 2,
            "TEXCOORD_0": 3
          },
          "indices": 4,
          "material": 0,
          "mode": 4
        }
      ]
    }
  ],
  "nodes": [
    {
      "children": [
        1
      ],
      "name": "RootNode (gltf orientation matrix)",
      "rotation": [
        -0.70710678118654746,
        -0,
        -0,
        0.70710678118654757
      ]
    },
    {
      "children": [
        2
      ],
      "name": "RootNode (model correction matrix)"
    },
    {
      "children": [
        3
      ],
      "name": "MIchelJackson.Kathia.obj.cleaner.gles"
    },
    {
      "mesh": 0,
      "name": ""
    }
  ],
  "samplers": [
    {
      "magFilter": 9729,
      "minFilter": 9987,
      "wrapS": 10497,
      "wrapT": 10497
    }
  ],
  "scene": 0,
  "scenes": [
    {
      "name": "OSG_Scene",
      "nodes": [
        0
      ]
    }
  ],
  "textures": [
    {
      "sampler": 0,
      "source": 0
    }
  ]
}

