{
  "accessors": [
    {
      "bufferView": 2,
      "componentType": 5126,
      "count": 3866,
      "max": [
        13.897000312805176,
        15.984600067138672,
        13.531499862670898
      ],
      "min": [
        0.0093999998643994331,
        10.984600067138672,
        -16.531499862670898
      ],
      "type": "VEC3"
    },
    {
      "bufferView": 2,
      "byteOffset": 46392,
      "componentType": 5126,
      "count": 3866,
      "max": [
        0.99999737739562988,
        1,
        0.99999737739562988
      ],
      "min": [
        -0.99999988079071045,
        -1,
        -0.99999988079071045
      ],
      "type": "VEC3"
    },
    {
      "bufferView": 3,
      "componentType": 5126,
      "count": 3866,
      "max": [
        1,
        1,
        1,
        1
      ],
      "min": [
        -1,
        -1,
        -1,
        -1
      ],
      "type": "VEC4"
    },
    {
      "bufferView": 1,
      "componentType": 5126,
      "count": 3866,
      "max": [
        0.99500000476837158,
        0.99400001764297485
      ],
      "min": [
        0.004999999888241291,
        0.004999999888241291
      ],
      "type": "VEC2"
    },
    {
      "bufferView": 0,
      "componentType": 5125,
      "count": 9534,
      "max": [
        3865
      ],
      "min": [
        0
      ],
      "type": "SCALAR"
    },
    {
      "bufferView": 2,
      "byteOffset": 92784,
      "componentType": 5126,
      "count": 6696,
      "max": [
        13.897000312805176,
        15.984600067138672,
        13.531499862670898
      ],
      "min": [
        0.0093999998643994331,
        10.984600067138672,
        -16.531499862670898
      ],
      "type": "VEC3"
    },
    {
      "bufferView": 2,
      "byteOffset": 173136,
      "componentType": 5126,
      "count": 6696,
      "max": [
        1,
        1,
        1
      ],
      "min": [
        -1,
        -1,
        -1
      ],
      "type": "VEC3"
    },
    {
      "bufferView": 3,
      "byteOffset": 61856,
      "componentType": 5126,
      "count": 6696,
      "max": [
        1,
        1,
        1,
        1
      ],
      "min": [
        -1,
        -1,
        -0.99999988079071045,
        -1
      ],
      "type": "VEC4"
    },
    {
      "bufferView": 1,
      "byteOffset": 30928,
      "componentType": 5126,
      "count": 6696,
      "max": [
        0.99150002002716064,
        0.97200000286102295
      ],
      "min": [
        0.004999999888241291,
        0.004999999888241291
      ],
      "type": "VEC2"
    },
    {
      "bufferView": 0,
      "byteOffset": 38136,
      "componentType": 5125,
      "count": 18297,
      "max": [
        6695
      ],
      "min": [
        0
      ],
      "type": "SCALAR"
    },
    {
      "bufferView": 2,
      "byteOffset": 253488,
      "componentType": 5126,
      "count": 15278,
      "max": [
        13.897000312805176,
        15.984600067138672,
        13.531499862670898
      ],
      "min": [
        0.0093999998643994331,
        10.984600067138672,
        -16.531499862670898
      ],
      "type": "VEC3"
    },
    {
      "bufferView": 2,
      "byteOffset": 436824,
      "componentType": 5126,
      "count": 15278,
      "max": [
        1,
        1,
        0.98220258951187134
      ],
      "min": [
        -1,
        -1,
        -0.97406816482543945
      ],
      "type": "VEC3"
    },
    {
      "bufferView": 3,
      "byteOffset": 168992,
      "componentType": 5126,
      "count": 15278,
      "max": [
        1,
        1,
        1,
        1
      ],
      "min": [
        -1,
        -0.92336434125900269,
        -1,
        -1
      ],
      "type": "VEC4"
    },
    {
      "bufferView": 1,
      "byteOffset": 84496,
      "componentType": 5126,
      "count": 15278,
      "max": [
        0.99150002002716064,
        0.99400001764297485
      ],
      "min": [
        0.004999999888241291,
        0.004999999888241291
      ],
      "type": "VEC2"
    },
    {
      "bufferView": 0,
      "byteOffset": 111324,
      "componentType": 5125,
      "count": 64806,
      "max": [
        15277
      ],
      "min": [
        0
      ],
      "type": "SCALAR"
    }
  ],
  "asset": {
    "extras": {
      "author": "artministry (https://sketchfab.com/artministry)",
      "license": "CC-BY-4.0 (http://creativecommons.org/licenses/by/4.0/)",
      "source": "https://sketchfab.com/models/8d3133d1d18c4f0fab3a226ecc2e69e1",
      "title": "Narthex Cross"
    },
    "generator": "Sketchfab-3.18.2",
    "version": "2.0"
  },
  "bufferViews": [
    {
      "buffer": 0,
      "byteLength": 370548,
      "byteOffset": 0,
      "name": "floatBufferViews",
      "target": 34963
    },
    {
      "buffer": 0,
      "byteLength": 206720,
      "byteOffset": 370548,
      "byteStride": 8,
      "name": "floatBufferViews",
      "target": 34962
    },
    {
      "buffer": 0,
      "byteLength": 620160,
      "byteOffset": 577268,
      "byteStride": 12,
      "name": "floatBufferViews",
      "target": 34962
    },
    {
      "buffer": 0,
      "byteLength": 413440,
      "byteOffset": 1197428,
      "byteStride": 16,
      "name": "floatBufferViews",
      "target": 34962
    }
  ],
  "buffers": [
    {
      "byteLength": 1610868,
      "uri": "scene.bin"
    }
  ],
  "images": [
    {
      "uri": "textures/Object001_mtl_emissive.jpeg"
    },
    {
      "uri": "textures/Object001_mtl_baseColor.jpeg"
    }
  ],
  "materials": [
    {
      "doubleSided": true,
      "emissiveFactor": [
        0,
        0,
        0
      ],
      "emissiveTexture": {
        "index": 0,
        "texCoord": 0
      },
      "name": "Object001_mtl",
      "pbrMetallicRoughness": {
        "baseColorFactor": [
          1,
          1,
          1,
          1
        ],
        "baseColorTexture": {
          "index": 1,
          "texCoord": 0
        },
        "metallicFactor": 0,
        "roughnessFactor": 0.59999999999999998
      }
    }
  ],
  "meshes": [
    {
      "primitives": [
        {
          "attributes": {
            "NORMAL": 1,
            "POSITION": 0,
            "TANGENT": 2,
            "TEXCOORD_0": 3
          },
          "indices": 4,
          "material": 0,
          "mode": 4
        }
      ]
    },
    {
      "primitives": [
        {
          "attributes": {
            "NORMAL": 6,
            "POSITION": 5,
            "TANGENT": 7,
            "TEXCOORD_0": 8
          },
          "indices": 9,
          "material": 0,
          "mode": 4
        }
      ]
    },
    {
      "primitives": [
        {
          "attributes": {
            "NORMAL": 11,
            "POSITION": 10,
            "TANGENT": 12,
            "TEXCOORD_0": 13
          },
          "indices": 14,
          "material": 0,
          "mode": 4
        }
      ]
    }
  ],
  "nodes": [
    {
      "children": [
        1
      ],
      "name": "RootNode (gltf orientation matrix)",
      "rotation": [
        -0.70710678118654746,
        -0,
        -0,
        0.70710678118654757
      ]
    },
    {
      "children": [
        2
      ],
      "name": "RootNode (model correction matrix)"
    },
    {
      "children": [
        3,
        4,
        5
      ],
      "name": "Narthex Cross.obj.cleaner"
    },
    {
      "mesh": 0,
      "name": ""
    },
    {
      "mesh": 1,
      "name": ""
    },
    {
      "mesh": 2,
      "name": ""
    }
  ],
  "samplers": [
    {
      "magFilter": 9729,
      "minFilter": 9987,
      "wrapS": 10497,
      "wrapT": 10497
    }
  ],
  "scene": 0,
  "scenes": [
    {
      "name": "OSG_Scene",
      "nodes": [
        0
      ]
    }
  ],
  "textures": [
    {
      "sampler": 0,
      "source": 0
    },
    {
      "sampler": 0,
      "source": 1
    }
  ]
}

