{
  "accessors": [
    {
      "bufferView": 2,
      "componentType": 5126,
      "count": 10063,
      "max": [
        0.80235999822616577,
        0.86861002445220947,
        -0.57359999418258667
      ],
      "min": [
        -0.87598001956939697,
        -0.80972999334335327,
        -7.2181000709533691
      ],
      "type": "VEC3"
    },
    {
      "bufferView": 2,
      "byteOffset": 120756,
      "componentType": 5126,
      "count": 10063,
      "max": [
        0.99996262788772583,
        0.99976462125778198,
        0.99883615970611572
      ],
      "min": [
        -0.99976521730422974,
        -0.99976521730422974,
        -1
      ],
      "type": "VEC3"
    },
    {
      "bufferView": 3,
      "componentType": 5126,
      "count": 10063,
      "max": [
        0.99999833106994629,
        0.9999995231628418,
        0.95041197538375854,
        1
      ],
      "min": [
        -0.99972403049468994,
        -0.99992871284484863,
        -0.9504120945930481,
        1
      ],
      "type": "VEC4"
    },
    {
      "bufferView": 0,
      "componentType": 5125,
      "count": 57504,
      "max": [
        10062
      ],
      "min": [
        0
      ],
      "type": "SCALAR"
    },
    {
      "bufferView": 2,
      "byteOffset": 241512,
      "componentType": 5126,
      "count": 3191,
      "max": [
        0.94912999868392944,
        1.0153700113296509,
        0.99696999788284302
      ],
      "min": [
        -1.0227400064468384,
        -0.95649999380111694,
        -0.57359999418258667
      ],
      "type": "VEC3"
    },
    {
      "bufferView": 2,
      "byteOffset": 279804,
      "componentType": 5126,
      "count": 3191,
      "max": [
        0.99517732858657837,
        0.99517732858657837,
        1
      ],
      "min": [
        -0.99517732858657837,
        -0.99517732858657837,
        -0.53167617321014404
      ],
      "type": "VEC3"
    },
    {
      "bufferView": 3,
      "byteOffset": 161008,
      "componentType": 5126,
      "count": 3191,
      "max": [
        0.9963386058807373,
        0.99960958957672119,
        0.69045412540435791,
        1
      ],
      "min": [
        -0.99671024084091187,
        -0.89462083578109741,
        -0.6626858115196228,
        1
      ],
      "type": "VEC4"
    },
    {
      "bufferView": 1,
      "componentType": 5126,
      "count": 3191,
      "max": [
        2.0472500324249268,
        0.8776400089263916
      ],
      "min": [
        -0.99138998985290527,
        -0.43799000978469849
      ],
      "type": "VEC2"
    },
    {
      "bufferView": 0,
      "byteOffset": 230016,
      "componentType": 5125,
      "count": 18048,
      "max": [
        3190
      ],
      "min": [
        0
      ],
      "type": "SCALAR"
    },
    {
      "bufferView": 2,
      "byteOffset": 318096,
      "componentType": 5126,
      "count": 1584,
      "max": [
        1.000789999961853,
        1.0670299530029297,
        0.0042599998414516449
      ],
      "min": [
        -1.0743999481201172,
        -1.0081599950790405,
        -3.0153300762176514
      ],
      "type": "VEC3"
    },
    {
      "bufferView": 2,
      "byteOffset": 337104,
      "componentType": 5126,
      "count": 1584,
      "max": [
        0.99973785877227783,
        0.99649453163146973,
        0.99883615970611572
      ],
      "min": [
        -0.99975109100341797,
        -0.99927324056625366,
        -0.99883615970611572
      ],
      "type": "VEC3"
    },
    {
      "bufferView": 3,
      "byteOffset": 212064,
      "componentType": 5126,
      "count": 1584,
      "max": [
        0.9999929666519165,
        0.99043631553649902,
        0.81184792518615723,
        1
      ],
      "min": [
        -0.99637097120285034,
        -0.99971950054168701,
        -0.99542194604873657,
        1
      ],
      "type": "VEC4"
    },
    {
      "bufferView": 0,
      "byteOffset": 302208,
      "componentType": 5125,
      "count": 8160,
      "max": [
        1583
      ],
      "min": [
        0
      ],
      "type": "SCALAR"
    }
  ],
  "asset": {
    "extras": {
      "author": "3DP.D. (https://sketchfab.com/3DPeeDee)",
      "license": "CC-BY-4.0 (http://creativecommons.org/licenses/by/4.0/)",
      "source": "https://sketchfab.com/models/674959decc084dc092b67fd3cb5193f3",
      "title": "Microphone"
    },
    "generator": "Sketchfab-3.20.7",
    "version": "2.0"
  },
  "bufferViews": [
    {
      "buffer": 0,
      "byteLength": 334848,
      "byteOffset": 0,
      "name": "floatBufferViews",
      "target": 34963
    },
    {
      "buffer": 0,
      "byteLength": 25528,
      "byteOffset": 334848,
      "byteStride": 8,
      "name": "floatBufferViews",
      "target": 34962
    },
    {
      "buffer": 0,
      "byteLength": 356112,
      "byteOffset": 360376,
      "byteStride": 12,
      "name": "floatBufferViews",
      "target": 34962
    },
    {
      "buffer": 0,
      "byteLength": 237408,
      "byteOffset": 716488,
      "byteStride": 16,
      "name": "floatBufferViews",
      "target": 34962
    }
  ],
  "buffers": [
    {
      "byteLength": 953896,
      "uri": "scene.bin"
    }
  ],
  "images": [
    {
      "uri": "textures/material_baseColor.jpeg"
    }
  ],
  "materials": [
    {
      "doubleSided": true,
      "emissiveFactor": [
        0,
        0,
        0
      ],
      "name": "grey",
      "pbrMetallicRoughness": {
        "baseColorFactor": [
          0.0042203665000000003,
          0.0042203665000000003,
          0.0042203665000000003,
          1
        ],
        "metallicFactor": 1,
        "roughnessFactor": 0.40000000600000002
      }
    },
    {
      "doubleSided": true,
      "emissiveFactor": [
        0,
        0,
        0
      ],
      "name": "material",
      "pbrMetallicRoughness": {
        "baseColorFactor": [
          1,
          1,
          1,
          1
        ],
        "baseColorTexture": {
          "index": 0,
          "texCoord": 0
        },
        "metallicFactor": 1,
        "roughnessFactor": 0.25
      }
    },
    {
      "doubleSided": true,
      "emissiveFactor": [
        0,
        0,
        0
      ],
      "name": "metal",
      "pbrMetallicRoughness": {
        "baseColorFactor": [
          1,
          1,
          1,
          1
        ],
        "metallicFactor": 0.80000000000000004,
        "roughnessFactor": 0.25
      }
    }
  ],
  "meshes": [
    {
      "name": "Sphere_0",
      "primitives": [
        {
          "attributes": {
            "NORMAL": 1,
            "POSITION": 0,
            "TANGENT": 2
          },
          "indices": 3,
          "material": 0,
          "mode": 4
        }
      ]
    },
    {
      "name": "Sphere_1",
      "primitives": [
        {
          "attributes": {
            "NORMAL": 5,
            "POSITION": 4,
            "TANGENT": 6,
            "TEXCOORD_0": 7
          },
          "indices": 8,
          "material": 1,
          "mode": 4
        }
      ]
    },
    {
      "name": "Sphere_2",
      "primitives": [
        {
          "attributes": {
            "NORMAL": 10,
            "POSITION": 9,
            "TANGENT": 11
          },
          "indices": 12,
          "material": 2,
          "mode": 4
        }
      ]
    }
  ],
  "nodes": [
    {
      "children": [
        1
      ],
      "name": "RootNode (gltf orientation matrix)",
      "rotation": [
        -0.70710678118654746,
        -0,
        -0,
        0.70710678118654757
      ]
    },
    {
      "children": [
        2
      ],
      "name": "RootNode (model correction matrix)"
    },
    {
      "children": [
        3
      ],
      "name": "Root"
    },
    {
      "children": [
        4,
        5,
        6
      ],
      "name": "Sphere"
    },
    {
      "mesh": 0,
      "name": "Sphere_0"
    },
    {
      "mesh": 1,
      "name": "Sphere_1"
    },
    {
      "mesh": 2,
      "name": "Sphere_2"
    }
  ],
  "samplers": [
    {
      "magFilter": 9729,
      "minFilter": 9987,
      "wrapS": 10497,
      "wrapT": 10497
    }
  ],
  "scene": 0,
  "scenes": [
    {
      "name": "OSG_Scene",
      "nodes": [
        0
      ]
    }
  ],
  "textures": [
    {
      "sampler": 0,
      "source": 0
    }
  ]
}

